<svg viewBox="0 0 712 712" fill="none" xmlns="http://www.w3.org/2000/svg">
<rect width="712" height="711.999" fill="white"/>
<path fill-rule="evenodd" clip-rule="evenodd" d="M300.191 445.497C327.836 472.462 365.317 487.63 404.413 487.674C443.506 487.627 480.984 472.456 508.626 445.492C536.268 418.527 551.817 381.969 551.862 343.837C551.817 305.705 536.268 269.147 508.626 242.183C480.984 215.218 443.506 200.048 404.413 200C365.317 200.044 327.836 215.213 300.191 242.178C272.546 269.143 256.995 305.703 256.95 343.837C256.995 381.972 272.546 418.531 300.191 445.497ZM342.516 283.462C358.934 267.448 381.194 258.44 404.413 258.414C427.629 258.443 449.886 267.453 466.301 283.467C482.716 299.481 491.949 321.192 491.976 343.837C491.953 366.484 482.721 388.196 466.305 404.211C449.889 420.226 427.63 429.235 404.413 429.261C381.194 429.235 358.934 420.226 342.516 404.212C326.098 388.198 316.863 366.485 316.836 343.837C316.863 321.189 326.098 299.477 342.516 283.462ZM233.535 412.742C242.833 434.582 256.467 454.413 273.651 471.095L231.788 511.999C209.074 489.956 191.051 463.752 178.755 434.893C166.458 406.034 160.131 375.089 160.138 343.836V205.729H219.468V343.836C219.455 367.485 224.236 390.902 233.535 412.742Z" fill="#151927"/>
</svg>
